<svg id="Layer_1" data-name="Layer 1" xmlns="http://www.w3.org/2000/svg" xmlns:xlink="http://www.w3.org/1999/xlink" viewBox="0 0 119.19 74.61"><defs><style>.cls-1{fill:#00a651;stroke:#231f20;stroke-miterlimit:10;}.cls-2{font-size:3.82px;fill:#231f20;font-family:Impact;}</style></defs><circle class="cls-1" cx="16.28" cy="29.23" r="15.78"/><text class="cls-2" transform="matrix(0.55, -0.84, 0.84, 0.55, 7.46, 23.57)">S</text><text class="cls-2" transform="translate(8.51 22.02) rotate(-48.46)">I</text><text class="cls-2" transform="translate(9.12 21.22) rotate(-38.54)">M</text><text class="cls-2" transform="translate(11.2 19.61) rotate(-24.81)">O</text><text class="cls-2" transform="matrix(0.97, -0.23, 0.23, 0.97, 12.97, 18.78)">N</text><text class="cls-2" transform="translate(14.88 18.32) rotate(-2.36)">S</text><text class="cls-2" transform="translate(16.78 18.27) rotate(4.83)"> </text><text class="cls-2" transform="translate(17.4 18.27) rotate(12.51)">B</text><text class="cls-2" transform="translate(19.34 18.74) rotate(21.11)">I</text><text class="cls-2" transform="matrix(0.87, 0.5, -0.5, 0.87, 20.31, 19.06)">N</text><text class="cls-2" transform="matrix(0.75, 0.66, -0.66, 0.75, 22.02, 20.03)">G</text><text class="cls-2" transform="matrix(0.6, 0.8, -0.8, 0.6, 23.53, 21.34)">O</text><text x="-15.72" y="-1.54"/><text x="-15.72" y="-1.54"/><text x="-15.72" y="-1.54"/><image width="600" height="600" transform="translate(8.7 23.42) scale(0.03)" xlink:href="Bingo-Pattern-Layout-with-Free-Sq.png"/></svg>